<?xml version="1.0" standalone="no"?>
<!DOCTYPE svg PUBLIC "-//W3C//DTD SVG 20010904//EN"
 "http://www.w3.org/TR/2001/REC-SVG-20010904/DTD/svg10.dtd">
<svg version="1.0" xmlns="http://www.w3.org/2000/svg"
 width="260.000000pt" height="260.000000pt" viewBox="0 0 260.000000 260.000000"
 preserveAspectRatio="xMidYMid meet">
<metadata>
Created by potrace 1.11, written by Peter Selinger 2001-2013
</metadata>
<g transform="translate(0.000000,260.000000) scale(0.100000,-0.100000)"
fill="#000000" stroke="none">
<path d="M566 2030 l-304 -305 2 -427 1 -428 303 -303 304 -304 429 1 429 1
304 305 304 305 -2 427 -1 428 -303 303 -304 304 -429 -1 -429 -1 -304 -305z
m1374 -86 l266 -265 3 -376 2 -376 -266 -267 -266 -267 -377 -1 -377 -1 -266
266 -266 265 -2 376 -1 376 265 266 266 266 376 2 377 2 266 -266z"/>
<path d="M1250 1744 c-36 -6 -83 -14 -105 -17 -37 -5 -133 -21 -195 -31 -14
-3 -47 -7 -75 -11 -27 -3 -53 -10 -58 -14 -4 -4 -6 -173 -5 -376 l3 -369 40
-7 c22 -4 58 -10 80 -13 22 -4 112 -18 200 -33 88 -14 178 -26 200 -27 l40 -1
1 458 2 457 -32 -2 c-17 -1 -60 -7 -96 -14z m-50 -455 l0 -159 -28 0 c-25 0
-34 11 -88 105 l-59 105 -3 -100 -3 -99 -27 2 -27 2 0 144 0 144 25 4 c14 1
30 -1 36 -5 6 -4 34 -49 63 -99 29 -51 54 -93 55 -93 1 0 2 42 1 93 -2 110 -1
115 31 115 l24 0 0 -159z"/>
<path d="M1402 1625 c1 -19 6 -36 12 -37 6 -1 63 -2 126 -2 l115 -1 3 -28 3
-28 -83 1 c-178 3 -178 3 -176 -25 l2 -25 128 0 128 0 0 -25 0 -24 -127 -3
c-124 -3 -128 -4 -131 -25 -4 -26 -12 -25 146 -25 l113 0 -3 -26 -3 -26 -125
-1 -125 0 0 -25 0 -25 125 0 125 0 3 -27 3 -26 -103 0 c-165 0 -160 1 -156
-24 3 -22 7 -23 131 -26 l127 -3 0 -24 0 -25 -128 0 -128 0 -2 -25 c-2 -24 0
-25 71 -26 39 0 98 0 130 1 56 1 57 1 57 -27 l0 -28 -130 1 -130 0 2 -38 1
-38 155 2 155 3 1 240 1 240 38 3 37 3 0 103 0 104 -30 -3 c-17 -1 -37 4 -45
11 -10 11 -49 14 -164 14 l-150 0 1 -35z"/>
<path d="M1746 1402 c-3 -3 -6 -51 -6 -107 0 -99 1 -102 23 -100 21 2 22 5 22
105 0 89 -2 103 -17 106 -9 1 -19 -1 -22 -4z"/>
<path d="M1742 1068 c3 -99 4 -103 26 -104 21 -1 22 1 22 102 l0 104 -25 0
-26 0 3 -102z"/>
</g>
</svg>
