<?xml version="1.0" standalone="no"?>
<!DOCTYPE svg PUBLIC "-//W3C//DTD SVG 20010904//EN"
 "http://www.w3.org/TR/2001/REC-SVG-20010904/DTD/svg10.dtd">
<svg version="1.0" xmlns="http://www.w3.org/2000/svg"
 width="260.000000pt" height="260.000000pt" viewBox="0 0 260.000000 260.000000"
 preserveAspectRatio="xMidYMid meet">
<metadata>
Created by potrace 1.11, written by Peter Selinger 2001-2013
</metadata>
<g transform="translate(0.000000,260.000000) scale(0.100000,-0.100000)"
fill="#000000" stroke="none">
<path d="M567 2032 l-307 -307 0 -425 0 -425 308 -308 307 -307 425 0 425 0
308 308 307 307 0 425 0 425 -308 308 -307 307 -425 0 -425 0 -308 -308z
m1375 -89 l268 -268 0 -375 0 -375 -267 -267 -268 -268 -375 0 -375 0 -268
268 -267 267 0 375 0 375 267 267 268 268 375 0 375 0 267 -267z"/>
<path d="M1315 1607 c-126 -42 -198 -126 -229 -268 l-6 -27 -37 20 c-52 27
-128 21 -181 -15 -115 -76 -103 -256 20 -316 43 -20 57 -21 447 -21 441 0 445
1 476 60 24 46 19 85 -15 124 -17 19 -40 36 -52 38 -18 3 -20 10 -22 98 -2
106 -17 148 -82 220 -73 80 -218 120 -319 87z"/>
</g>
</svg>
