<?xml version="1.0" standalone="no"?>
<!DOCTYPE svg PUBLIC "-//W3C//DTD SVG 20010904//EN"
 "http://www.w3.org/TR/2001/REC-SVG-20010904/DTD/svg10.dtd">
<svg version="1.0" xmlns="http://www.w3.org/2000/svg"
 width="260.000000pt" height="260.000000pt" viewBox="0 0 260.000000 260.000000"
 preserveAspectRatio="xMidYMid meet">
<metadata>
Created by potrace 1.11, written by Peter Selinger 2001-2013
</metadata>
<g transform="translate(0.000000,260.000000) scale(0.100000,-0.100000)"
fill="#000000" stroke="none">
<path d="M567 2032 l-307 -307 0 -425 0 -425 308 -308 307 -307 425 0 425 0
308 308 307 307 0 425 0 425 -308 308 -307 307 -425 0 -425 0 -308 -308z
m1375 -89 l268 -268 0 -375 0 -375 -267 -267 -268 -268 -375 0 -375 0 -268
268 -267 267 0 375 0 375 267 267 268 268 375 0 375 0 267 -267z"/>
</g>
</svg>
